<mxfile host="app.diagrams.net" modified="2022-12-26T15:32:58.365Z" agent="5.0 (Windows NT 10.0; Win64; x64) AppleWebKit/537.36 (KHTML, like Gecko) Chrome/107.0.0.0 Safari/537.36" version="20.6.2" etag="UkwJQYzVV_TnrXg7zXgi" type="github">
  <diagram id="lnLX-CoW2G7tyx5--i7n" name="Page-1">
    <mxGraphModel dx="782" dy="468" grid="0" gridSize="10" guides="1" tooltips="1" connect="1" arrows="1" fold="1" page="1" pageScale="1" pageWidth="850" pageHeight="1100" math="0" shadow="0">
      <root>
        <mxCell id="0" />
        <mxCell id="1" parent="0" />
        <mxCell id="tWPZuhtFZ7ciS9JYqS5--1" value="" style="rounded=1;whiteSpace=wrap;html=1;dashed=1;" vertex="1" parent="1">
          <mxGeometry x="135" y="119" width="572" height="234" as="geometry" />
        </mxCell>
        <mxCell id="tWPZuhtFZ7ciS9JYqS5--2" value="Data Pre-Processing" style="shape=image;verticalLabelPosition=bottom;labelBackgroundColor=default;verticalAlign=top;aspect=fixed;imageAspect=0;image=https://cdn-icons-png.flaticon.com/512/3079/3079165.png;fontStyle=1" vertex="1" parent="1">
          <mxGeometry x="141" y="134" width="155" height="155" as="geometry" />
        </mxCell>
        <mxCell id="tWPZuhtFZ7ciS9JYqS5--3" value="Data Aggregation" style="shape=image;verticalLabelPosition=bottom;labelBackgroundColor=default;verticalAlign=top;aspect=fixed;imageAspect=0;image=https://cdn-icons-png.flaticon.com/512/6119/6119386.png;fontStyle=1" vertex="1" parent="1">
          <mxGeometry x="358" y="146" width="143" height="143" as="geometry" />
        </mxCell>
        <mxCell id="tWPZuhtFZ7ciS9JYqS5--4" value="Data Post-Processing" style="shape=image;verticalLabelPosition=bottom;labelBackgroundColor=default;verticalAlign=top;aspect=fixed;imageAspect=0;image=https://cdn-icons-png.flaticon.com/512/2169/2169077.png;fontStyle=1" vertex="1" parent="1">
          <mxGeometry x="552" y="152.25" width="130.5" height="130.5" as="geometry" />
        </mxCell>
        <mxCell id="tWPZuhtFZ7ciS9JYqS5--7" value="" style="shape=singleArrow;whiteSpace=wrap;html=1;" vertex="1" parent="1">
          <mxGeometry x="509" y="224" width="39" height="25" as="geometry" />
        </mxCell>
        <mxCell id="tWPZuhtFZ7ciS9JYqS5--8" value="" style="shape=singleArrow;whiteSpace=wrap;html=1;" vertex="1" parent="1">
          <mxGeometry x="302" y="223.5" width="39" height="25" as="geometry" />
        </mxCell>
        <mxCell id="tWPZuhtFZ7ciS9JYqS5--10" value="&lt;font style=&quot;font-size: 20px;&quot;&gt;&lt;b&gt;EDA Process Lifecycle&lt;/b&gt;&lt;/font&gt;" style="text;html=1;align=center;verticalAlign=middle;resizable=0;points=[];autosize=1;strokeColor=none;fillColor=none;" vertex="1" parent="1">
          <mxGeometry x="283" y="83" width="234" height="36" as="geometry" />
        </mxCell>
        <mxCell id="tWPZuhtFZ7ciS9JYqS5--11" value="&lt;font style=&quot;font-size: 12px;&quot;&gt;Created by Ravi Kumar&lt;/font&gt;" style="text;html=1;align=center;verticalAlign=middle;resizable=0;points=[];autosize=1;strokeColor=none;fillColor=none;fontSize=20;" vertex="1" parent="1">
          <mxGeometry x="548" y="317" width="143" height="36" as="geometry" />
        </mxCell>
      </root>
    </mxGraphModel>
  </diagram>
</mxfile>
